<svg xmlns="http://www.w3.org/2000/svg" viewBox="0 0 512 512">
  <defs>
    <linearGradient id="g" x1="0%" y1="0%" x2="100%" y2="100%">
      <stop offset="0%" style="stop-color:#0071e3"/>
      <stop offset="100%" style="stop-color:#5e17eb"/>
    </linearGradient>
  </defs>
  <!-- Background -->
  <rect width="512" height="512" rx="112" fill="url(#g)"/>
  <!-- Document shape -->
  <rect x="136" y="96" width="240" height="300" rx="16" fill="rgba(255,255,255,0.15)"/>
  <rect x="136" y="96" width="240" height="300" rx="16" fill="none" stroke="white" stroke-width="8" opacity="0.6"/>
  <!-- Lines representing CV content -->
  <rect x="168" y="148" width="80" height="10" rx="5" fill="white" opacity="0.9"/>
  <rect x="168" y="170" width="120" height="8" rx="4" fill="white" opacity="0.6"/>
  <rect x="168" y="210" width="176" height="7" rx="3.5" fill="white" opacity="0.5"/>
  <rect x="168" y="228" width="144" height="7" rx="3.5" fill="white" opacity="0.5"/>
  <rect x="168" y="246" width="160" height="7" rx="3.5" fill="white" opacity="0.5"/>
  <rect x="168" y="278" width="176" height="7" rx="3.5" fill="white" opacity="0.5"/>
  <rect x="168" y="296" width="120" height="7" rx="3.5" fill="white" opacity="0.5"/>
  <rect x="168" y="328" width="144" height="7" rx="3.5" fill="white" opacity="0.5"/>
  <!-- Star / Pro badge -->
  <circle cx="340" cy="380" r="52" fill="#0071e3" stroke="white" stroke-width="6"/>
  <text x="340" y="392" text-anchor="middle" font-family="Arial" font-weight="bold" font-size="36" fill="white">Pro</text>
</svg>
